<svg version="1.1" xmlns="http://www.w3.org/2000/svg"
     viewBox="-254.97599716186522 -1715.2000610351563 6500.413635161334 2918.4">
    <desc>Created with Snap</desc><defs></defs>
    <g><g transform="matrix(82.2879,0,0,82.2879,3551.888,-1490.3497)">
        <path d="M28.832,15.546C28.937,15.386,29,15.198,29,15c0-0.368-0.202-0.706-0.526-0.88l-1.986-1.07l-11.019,5.834  C15.321,18.961,15.161,19,15,19s-0.321-0.039-0.468-0.116L3.513,13.05l-1.986,1.07C1.202,14.294,1,14.632,1,15  c0,0.198,0.063,0.386,0.168,0.546L15,22.869L28.832,15.546z" fill="#f4b41a" style=""></path>
        <path d="M28.474,20.12l-1.986-1.07l-11.02,5.834C15.321,24.962,15.161,25,15,25s-0.321-0.039-0.468-0.116L3.513,19.05l-1.986,1.07  C1.202,20.294,1,20.632,1,21s0.202,0.706,0.526,0.88l13,7C14.674,28.96,14.837,29,15,29s0.326-0.04,0.474-0.12l13-7  C28.798,21.706,29,21.368,29,21S28.798,20.294,28.474,20.12z" fill="#f4b41a" style=""></path><path d="M15,16.869l13.832-7.323C28.937,9.385,29,9.198,29,9c0-0.368-0.202-0.706-0.526-0.88l-13-7  c-0.295-0.159-0.652-0.159-0.947,0l-13,7C1.202,8.294,1,8.632,1,9c0,0.198,0.063,0.385,0.168,0.546L15,16.869z" fill="#f4b41a" style=""></path><desc>Created with Snap</desc><defs></defs></g><g><g transform="matrix(1.024,0,0,-1.024,0,0)"><path d="M325 11Q375 11 413 38Q452 65 452 119Q452 174 410 203Q369 232 292 253Q216 275 181 291Q147 307 116 333Q54 385 54 494Q54 583 117 647Q181 711 291 711Q344 711 401 695Q459 680 473 680Q487 680 498 700L509 700L516 498L500 498Q452 585 399 637Q347 690 285 690Q224 690 190 661Q156 633 156 585Q156 538 196 512Q237 487 296 471Q355 455 373 449Q392 443 419 432Q447 422 464 410Q482 399 501 381Q521 364 532 343Q559 295 559 229Q559 121 491 55Q424 -10 314 -10Q257 -10 183 5Q110 20 102 20Q88 20 75 -10L61 -10L51 228L68 228Q112 141 180 76Q249 11 325 11ZM757 545Q704 545 681 572Q659 599 659 639Q659 679 683 705Q708 731 758 731Q808 731 834 707Q860 684 860 640Q860 597 835 571Q810 545 757 545ZM606 458L606 476L851 476L851 18L907 18L907 0L610 0L610 18L665 18L665 458L606 458ZM927 458L927 476L1168 476L1168 384Q1201 486 1313 486Q1426 486 1450 378Q1485 486 1597 486Q1744 486 1744 319L1744 18L1800 18L1800 0L1523 0L1523 18L1558 18L1558 343Q1558 419 1545 432Q1539 438 1529 438Q1500 438 1478 399Q1456 360 1456 300L1456 18L1492 18L1492 0L1235 0L1235 18L1270 18L1270 343Q1270 419 1257 432Q1251 438 1241 438Q1213 438 1190 395Q1168 353 1168 294L1168 18L1204 18L1204 0L927 0L927 18L982 18L982 458L927 458ZM2180 269Q2180 372 2170 407Q2160 443 2131 443Q2102 443 2079 405Q2056 368 2056 305L2056 122Q2056 79 2073 49Q2090 19 2123 19Q2156 19 2168 63Q2180 107 2180 217L2180 269ZM1817 476L2054 476L2054 397Q2093 486 2192 486Q2278 486 2325 424Q2373 362 2373 236Q2373 110 2321 50Q2270 -10 2167 -10Q2119 -10 2095 2Q2071 14 2056 39L2056 -220L2185 -220L2185 -238L1815 -238L1815 -220L1870 -220L1870 458L1817 458L1817 476ZM2399 732L2399 750L2644 750L2644 18L2700 18L2700 0L2403 0L2403 18L2458 18L2458 732L2399 732ZM2755 458L2714 458L2714 476L3004 476L3004 458L2950 458L3059 126L3175 458L3108 458L3108 476L3249 476L3249 458L3199 458L3012 -81Q2979 -175 2938 -213Q2897 -250 2838 -250Q2779 -250 2745 -223Q2711 -196 2711 -154Q2711 -112 2733 -90Q2755 -68 2791 -68Q2874 -68 2874 -137Q2874 -152 2868 -173L2833 -173Q2825 -196 2831 -211Q2837 -226 2858 -226Q2899 -226 2931 -186Q2963 -145 2992 -62L3014 0L2926 0L2755 458Z" fill="#143d59" style=""></path></g></g></g></svg>